HIERARCHY
ROOT root
{
	OFFSET	0	13.1	24.9
	CHANNELS 6  Xposition Yposition Zposition Xrotation Yrotation Zrotation
	JOINT spine_1
	{
		OFFSET	0	9.99999	0
		CHANNELS 3  Xrotation Yrotation Zrotation
		JOINT spine_2
		{
			OFFSET	0	112	-10
			CHANNELS 3  Xrotation Yrotation Zrotation
			JOINT spine_3
			{
				OFFSET	0	206.5	19.3
				CHANNELS 3  Xrotation Yrotation Zrotation
				JOINT spine_4
				{
					OFFSET	0	110.4	14.6
					CHANNELS 3  Xrotation Yrotation Zrotation
					JOINT neck_1
					{
						OFFSET	0	71.8	-50.3
						CHANNELS 3  Xrotation Yrotation Zrotation
						JOINT neck_2
						{
							OFFSET	0	86.2	-25.8
							CHANNELS 3  Xrotation Yrotation Zrotation
							JOINT head_ee
							{
								OFFSET	0	179.8	-8.7
								CHANNELS 3  Xrotation Yrotation Zrotation
								End Site
								{
									OFFSET	1	0	0
								}
							}
						}
					}
					JOINT left_clavicle
					{
						OFFSET	-43.2	22.4	-70.8
						CHANNELS 3  Xrotation Yrotation Zrotation
						JOINT left_shoulder
						{
							OFFSET	-93.9	-5.79999	48.7
							CHANNELS 3  Xrotation Yrotation Zrotation
							JOINT left_elbow
							{
								OFFSET	-291.4	-30.8	15.2
								CHANNELS 3  Xrotation Yrotation Zrotation
								JOINT left_lowarm_twist
								{
									OFFSET	-110.7	-3.89999	13.6
									CHANNELS 3  Xrotation Yrotation Zrotation
									JOINT left_hand
									{
										OFFSET	-110.7	-3.89999	13.6
										CHANNELS 3  Xrotation Yrotation Zrotation
										JOINT left_ee
										{
											OFFSET	-80.8	-5.10001	12.1
											CHANNELS 3  Xrotation Yrotation Zrotation
											End Site
											{
												OFFSET	1	0	0
											}
										}
									}
								}
							}
						}
					}
					JOINT right_clavicle
					{
						OFFSET	43.2	22.4	-70.8
						CHANNELS 3  Xrotation Yrotation Zrotation
						JOINT right_shoulder
						{
							OFFSET	93.9	-5.79999	48.7
							CHANNELS 3  Xrotation Yrotation Zrotation
							JOINT right_elbow
							{
								OFFSET	291.4	-30.8	15.2
								CHANNELS 3  Xrotation Yrotation Zrotation
								JOINT right_lowarm_twist
								{
									OFFSET	110.7	-3.89999	13.6
									CHANNELS 3  Xrotation Yrotation Zrotation
									JOINT right_hand
									{
										OFFSET	110.7	-3.89999	13.6
										CHANNELS 3  Xrotation Yrotation Zrotation
										JOINT right_ee
										{
											OFFSET	80.8	-5.10001	12.1
											CHANNELS 3  Xrotation Yrotation Zrotation
											End Site
											{
												OFFSET	1	0	0
											}
										}
									}
								}
							}
						}
					}
				}
			}
		}
	}
	JOINT left_hip
	{
		OFFSET	-82.8	-127.5	0.300001
		CHANNELS 3  Xrotation Yrotation Zrotation
		JOINT left_knee
		{
			OFFSET	-28.2	-396.7	2.2
			CHANNELS 3  Xrotation Yrotation Zrotation
			JOINT left_ankle
			{
				OFFSET	-11.7	-411.3	35.4
				CHANNELS 3  Xrotation Yrotation Zrotation
				JOINT left_toes
				{
					OFFSET	0	-60	-88.6
					CHANNELS 3  Xrotation Yrotation Zrotation
					JOINT left_foot_ee
					{
						OFFSET	-22.5	-16.5	-42.2
						CHANNELS 3  Xrotation Yrotation Zrotation
						End Site
						{
							OFFSET	1	0	0
						}
					}
				}
			}
		}
	}
	JOINT right_hip
	{
		OFFSET	82.8	-127.5	0.300001
		CHANNELS 3  Xrotation Yrotation Zrotation
		JOINT right_knee
		{
			OFFSET	28.2	-396.7	2.2
			CHANNELS 3  Xrotation Yrotation Zrotation
			JOINT right_ankle
			{
				OFFSET	11.7	-411.3	35.4
				CHANNELS 3  Xrotation Yrotation Zrotation
				JOINT right_toes
				{
					OFFSET	0	-60	-88.6
					CHANNELS 3  Xrotation Yrotation Zrotation
					JOINT right_foot_ee
					{
						OFFSET	22.5	-16.5	-42.2
						CHANNELS 3  Xrotation Yrotation Zrotation
						End Site
						{
							OFFSET	1	0	0
						}
					}
				}
			}
		}
	}
}
MOTION
Frames: 12
Frame Time: 0.02
3614.46 753.206 -556.14 -20.4016 49.2925 12.9671 5.74559 0.315848 1.0666 5.74619 0.247342 1.08453 5.75021 0.125278 1.1053 5.74863 0.298257 1.07165 -4.87734 14.0113 3.80734 -4.74063 22.9346 6.26921 -0.0 0.0 -0.0 2.83252 10.2131 6.08086 -31.9743 -48.4921 51.5726 1.53934 -37.3245 0.519936 60.6631 -1.83332 -7.16876 1.29131 -2.61192 7.59174 -0.0 0.0 -0.0 10.4616 -0.0503255 -20.6089 -40.0701 22.8965 -55.8193 0.632097 17.3866 -0.0966499 34.3183 0.0871798 4.31823 0.519077 4.24939 -1.69612 0.0 0.0 0.0 18.2091 13.8117 6.16814 -13.6337 0.317149 2.06331 37.0773 -28.9986 -5.55491 39.6498 -0.0 -0.0 -0.0 0.0 -0.0 28.9017 -12.2301 15.7141 -21.3744 -0.276773 -3.2494 11.9404 12.9563 1.80177 23.0351 -0.0 -0.0 0.0 0.0 0.0 
3610.21 756.21 -555.86 -20.8371 49.5081 13.8593 5.68199 0.163608 1.06954 5.68263 0.0952225 1.07778 5.68375 -0.0264317 1.08166 5.68215 0.144718 1.07226 -4.3879 14.2444 4.02755 -4.22053 23.1019 6.44653 -0.0 0.0 -0.0 2.76916 10.6718 5.9958 -32.3467 -48.8609 51.045 1.56473 -37.7773 0.535409 60.5912 -1.82684 -7.16219 1.23711 -2.64645 7.21027 -0.0 0.0 -0.0 10.4002 -0.843201 -20.4352 -40.3294 23.197 -56.0586 0.639943 17.5892 -0.0990076 34.015 0.0750933 4.28139 0.477278 4.19984 -1.43542 0.0 0.0 0.0 17.3607 13.344 7.21846 -12.9027 0.312675 1.95125 37.4907 -29.1421 -5.60711 39.3067 -0.0 -0.0 -0.0 0.0 -0.0 29.2174 -12.2337 15.4293 -20.7338 -0.286194 -3.15156 10.9907 11.1809 1.64638 22.8329 -0.0 -0.0 0.0 0.0 0.0 
3605.71 761.532 -561.745 -21.9776 49.5729 14.7286 5.66037 0.100854 0.956817 5.66087 0.039768 0.961295 5.66102 -0.0688393 0.959651 5.65974 0.0835765 0.95848 -5.04081 14.079 4.54619 -4.90362 22.5385 7.05605 -0.0 0.0 -0.0 1.89261 10.994 4.51851 -32.1863 -49.4538 51.2579 1.58482 -38.1317 0.547766 60.5351 -1.82179 -7.15707 1.25358 -2.7912 7.26207 -0.0 0.0 -0.0 10.3423 -1.83724 -20.2532 -40.0164 23.5062 -55.8259 0.656842 18.0239 -0.104175 33.793 0.0663705 4.25439 0.462582 4.39447 -1.25449 0.0 0.0 0.0 16.5212 13.2674 7.47252 -11.808 0.303303 1.78355 37.4687 -28.8576 -5.58612 39.0908 -0.0 -0.0 -0.0 0.0 -0.0 29.3563 -12.2805 15.3495 -19.5711 -0.300495 -2.97373 10.3379 8.66659 1.5309 22.5208 -0.0 -0.0 0.0 0.0 0.0 
3599.39 764.532 -565.337 -22.3149 49.8739 14.9514 5.45746 0.0672467 0.931619 5.45794 0.00783175 0.934009 5.4576 -0.100798 0.928588 5.4564 0.0471136 0.932853 -5.73166 13.923 4.98965 -5.62166 22.0611 7.58964 -0.0 0.0 -0.0 1.30636 11.3486 3.55157 -32.0221 -50.2154 52.0204 1.60329 -38.4545 0.559213 60.4427 -1.8135 -7.14862 1.26637 -2.88368 7.31054 -0.0 0.0 -0.0 10.3546 -2.76572 -20.2141 -39.7387 23.7532 -55.7118 0.699912 19.1223 -0.117895 33.655 0.0610022 4.23759 0.460938 4.66091 -1.13112 0.0 0.0 0.0 15.7362 13.3369 7.69584 -11.1231 0.295809 1.67872 37.4645 -28.5771 -5.56748 38.9398 -0.0 -0.0 -0.0 0.0 -0.0 29.4777 -12.3146 15.2662 -18.6228 -0.309485 -2.82851 9.68546 6.65317 1.42386 22.2197 -0.0 -0.0 0.0 0.0 0.0 
3593.92 762.627 -569.504 -21.6647 50.6711 14.2939 5.34293 0.0496405 0.938447 5.34342 -0.0101733 0.939704 5.34279 -0.121213 0.93191 5.34158 0.0274792 0.939357 -6.18679 13.8423 5.32263 -6.09101 21.7602 7.98218 -0.0 0.0 -0.0 0.849254 11.4928 2.79222 -31.9558 -50.6998 52.3694 1.61273 -38.6184 0.565094 60.3809 -1.80796 -7.14296 1.27411 -2.93714 7.34086 -0.0 0.0 -0.0 10.3728 -3.30714 -20.2108 -39.4692 23.8831 -55.2358 0.727339 19.8142 -0.127036 33.565 0.0575223 4.22662 0.455313 4.84665 -1.01486 0.0 0.0 0.0 15.2078 13.4096 7.87159 -10.5655 0.288784 1.59345 37.4702 -28.3719 -5.5549 38.8298 -0.0 -0.0 -0.0 0.0 -0.0 29.3275 -12.4514 14.9335 -18.0999 -0.313415 -2.74837 9.20395 5.24374 1.34727 21.9995 -0.0 -0.0 0.0 0.0 0.0 
3583.86 762.019 -565.351 -20.8451 50.5844 13.6586 5.27145 0.0296503 0.903258 5.27191 -0.027884 0.903314 5.27105 -0.135617 0.893512 5.26994 0.00719234 0.903716 -6.51031 13.7965 5.56147 -6.42322 21.5677 8.26373 -0.0 0.0 -0.0 0.564792 11.398 2.30234 -31.6921 -51.0467 52.4072 1.62297 -38.7953 0.571497 60.3498 -1.80517 -7.1401 1.28022 -2.98894 7.36087 -0.0 0.0 -0.0 10.2247 -3.70425 -19.8821 -39.5904 23.8041 -54.7166 0.740681 20.1487 -0.131595 33.4901 0.0546396 4.21749 0.445989 4.97605 -0.897411 0.0 0.0 0.0 14.8605 13.4678 8.05112 -10.3351 0.285639 1.55824 37.4493 -28.2443 -5.54465 38.758 -0.0 -0.0 -0.0 0.0 -0.0 29.2753 -12.5532 14.6419 -17.7339 -0.315729 -2.69226 8.86318 4.28882 1.29411 21.8393 -0.0 -0.0 0.0 0.0 0.0 
3566.3 761.217 -572.127 -18.275 49.8296 12.2239 5.00054 -0.0641641 0.888196 5.00097 -0.12055 0.882314 4.99876 -0.229212 0.860508 4.99774 -0.0904401 0.885906 -6.92299 13.706 5.65863 -6.85159 21.4144 8.40943 -0.0 0.0 -0.0 0.71109 11.1042 2.52025 -29.8753 -51.5403 52.9232 1.65621 -39.3635 0.592449 60.3826 -1.80811 -7.14311 1.28961 -3.10457 7.37673 -0.0 0.0 -0.0 10.0623 -3.98532 -19.5356 -39.7064 23.7306 -54.3678 0.749513 20.3693 -0.134653 33.4129 0.0516798 4.20808 0.435597 5.01607 -0.810475 0.0 0.0 0.0 14.6851 13.4936 7.89256 -10.3554 0.285921 1.56133 37.3773 -28.1611 -5.53202 38.6965 -0.0 -0.0 -0.0 0.0 -0.0 30.4471 -11.9663 15.4447 -17.4716 -0.317167 -2.65204 8.47944 3.66499 1.23692 21.6941 -0.0 -0.0 0.0 0.0 0.0 
3565.24 759.5 -573.387 -18.3496 49.4242 12.1123 5.01116 -0.12197 0.872603 5.01157 -0.177246 0.863075 5.00856 -0.282942 0.834423 5.00762 -0.147615 0.868633 -6.95521 13.6661 5.35335 -6.89375 21.567 8.10515 -0.0 0.0 -0.0 1.19614 10.8593 3.32177 -27.4333 -52.1003 53.9158 1.70178 -40.1278 0.621587 60.403 -1.80994 -7.14498 1.32 -3.63439 7.36325 -0.0 0.0 -0.0 9.93939 -5.4858 -19.1749 -39.7832 23.2111 -54.2838 0.754843 20.5021 -0.136514 33.3634 0.0497918 4.20204 0.435878 5.12595 -0.765957 0.0 0.0 0.0 14.3219 12.6153 7.89502 -10.3976 0.286506 1.5678 37.3159 -28.1956 -5.52791 38.8693 -0.0 -0.0 -0.0 0.0 -0.0 32.3792 -11.8224 14.8376 -17.7609 -0.31557 -2.69641 7.96363 3.21946 1.16193 21.6194 -0.0 -0.0 0.0 0.0 0.0 
3559.29 757.952 -575.089 -18.4433 49.8687 12.4011 5.11625 -0.149244 0.858359 5.11664 -0.203559 0.847124 5.1133 -0.305584 0.815891 5.11242 -0.172899 0.853909 -6.96932 13.6464 5.11989 -6.91466 21.7016 7.87293 -0.0 0.0 -0.0 1.4988 10.5875 3.81517 -25.8399 -52.3887 54.3125 1.73139 -40.6154 0.640766 60.3945 -1.80918 -7.1442 1.34078 -4.00562 7.34996 -0.0 0.0 -0.0 9.86704 -6.42912 -18.9546 -39.7282 22.8458 -53.9962 0.759098 20.608 -0.138008 33.3545 0.0494512 4.20096 0.437257 5.21728 -0.736675 0.0 0.0 0.0 13.7898 11.8796 8.09919 -10.664 0.290084 1.6085 37.2288 -28.2475 -5.52224 38.9874 -0.0 -0.0 -0.0 0.0 -0.0 33.7465 -11.7324 14.3901 -18.0073 -0.314034 -2.73418 7.5821 2.93632 1.10664 21.567 -0.0 -0.0 0.0 0.0 0.0 
3545.99 759.403 -575.289 -17.6765 51.053 11.876 5.16902 -0.0767791 0.850654 5.16941 -0.130751 0.844046 5.16714 -0.232166 0.821955 5.16621 -0.0994445 0.848303 -6.82944 13.9012 3.2712 -6.80444 23.4848 6.07087 -0.0 0.0 -0.0 1.60136 10.5836 3.99029 -24.802 -52.6247 55.0559 1.82241 -42.0707 0.700898 59.8794 -1.7632 -7.09679 1.44248 -5.01816 7.61808 -0.0 0.0 -0.0 9.68095 -7.05182 -18.5413 -40.2449 21.1834 -53.4458 0.72065 19.646 -0.124777 34.0356 0.075909 4.2839 0.461514 5.74193 -0.678412 0.0 0.0 0.0 11.5128 10.2532 8.13916 -13.8923 0.31839 2.10297 37.5437 -28.9785 -5.60173 40.1762 -0.0 -0.0 -0.0 0.0 -0.0 36.3673 -11.6116 13.9491 -21.9654 -0.267112 -3.33957 4.5194 2.61972 0.66544 21.8705 -0.0 -0.0 0.0 0.0 0.0 
3534.36 754.405 -577.531 -16.6722 50.5203 11.4145 5.20164 -0.0336642 0.834883 5.20203 -0.0867198 0.83105 5.20043 -0.186406 0.814505 5.19951 -0.0554349 0.833721 -7.32294 14.0444 2.08787 -7.34249 24.6805 5.02993 -0.0 0.0 -0.0 2.4937 10.726 5.52693 -23.4907 -52.6791 55.1343 1.88725 -43.0682 0.744761 59.808 -1.75686 -7.09019 1.49695 -5.79761 7.66099 -0.0 0.0 -0.0 9.54736 -7.549 -18.2427 -40.9549 20.1145 -52.921 0.695678 19.0149 -0.116511 34.4925 0.0942106 4.33937 0.494773 6.12099 -0.742342 0.0 0.0 0.0 10.137 9.12085 7.96612 -16.0203 0.321798 2.42943 37.1871 -29.3469 -5.58933 40.1222 -0.0 -0.0 -0.0 0.0 -0.0 38.2832 -11.3775 14.0773 -24.7362 -0.209436 -3.76082 0.749405 2.358 0.111423 21.7356 -0.0 -0.0 0.0 0.0 0.0 
3524.49 752.593 -579.894 -15.9732 51.2853 11.0994 5.11649 -0.0536284 0.841209 5.11688 -0.107046 0.836092 5.11498 -0.208412 0.816747 5.11406 -0.0768116 0.83941 -7.85892 14.0031 1.06614 -7.92317 25.4021 4.13013 -0.0 0.0 -0.0 3.08916 10.8316 6.55202 -23.0082 -52.2469 54.6567 1.93271 -43.7489 0.776006 59.7581 -1.75244 -7.08557 1.53666 -6.36501 7.69165 -0.0 0.0 -0.0 9.43406 -7.87381 -17.9992 -41.4349 19.2364 -52.5886 0.67674 18.5331 -0.110416 34.923 0.111858 4.39149 0.49701 6.38936 -0.643762 0.0 0.0 0.0 9.18738 8.33641 7.86656 -17.5158 0.316938 2.65883 36.9361 -29.6062 -5.58049 40.0413 -0.0 -0.0 -0.0 0.0 -0.0 39.8174 -11.1617 13.8882 -26.4838 -0.162604 -4.02492 -2.07638 2.18955 -0.310681 21.5473 -0.0 -0.0 0.0 0.0 0.0 
